<svg width="317.1px" height="143.5px" viewBox="0 0 1364 508">
    <defs>
      <polygon
        id="path-1"
        points="0 0.231399225 1363.63021 0.231399225 1363.63021 507.356296 0 507.356296"
      />
    </defs>
    <g id="Page-1" stroke="none" strokeWidth="1" fill="none" fillRule="evenodd">
      <g id="Group-30">
        <g id="Group-3">
        <g id="Clip-2" />
        <path
        d="M1362.71186,324.991391 L1363.63021,326.035688 L1363.61198,169.66098 L1216.02563,0.231399225 L1174.43985,6.33437146 L1175.38327,106.524057 L1068.68995,21.849969 L1054.72775,23.8990233 L1055.26327,80.62829 C1055.22681,80.5864251 1055.19035,80.5445602 1055.15389,80.5026953 C1055.09464,80.4375721 1055.04223,80.3701231 1054.98298,80.3073258 C1054.92373,80.2422026 1054.86904,80.1747536 1054.80979,80.1096304 C1054.75282,80.0445072 1054.69813,79.9770582 1054.63888,79.911935 C1054.58191,79.8468118 1054.52722,79.7793628 1054.46797,79.7142397 C1054.40872,79.6491165 1054.35631,79.5816675 1054.29706,79.5188701 C1054.23781,79.4537469 1054.18312,79.3839721 1054.12387,79.3188489 C1054.06462,79.2537257 1054.01221,79.1862767 1053.95296,79.1211536 C1053.89371,79.0583562 1053.8413,78.9909072 1053.78205,78.925784 C1053.7228,78.8606608 1053.66811,78.7932118 1053.60886,78.7280887 C1053.55189,78.6629655 1053.4972,78.5955165 1053.44023,78.5327191 C1053.38098,78.4652701 1053.32629,78.3978211 1053.26704,78.3326979 C1053.20779,78.2699006 1053.15538,78.2024516 1053.09613,78.1373284 C1053.03688,78.0722052 1052.98219,78.0047562 1052.92294,77.939633 C1052.86597,77.8745098 1052.81128,77.8070608 1052.75431,77.7419377 C1052.69506,77.6768145 1052.64037,77.6093655 1052.58112,77.5442423 C1052.52188,77.4791191 1052.46946,77.4116701 1052.41021,77.3488728 C1052.35097,77.2837496 1052.29627,77.2139747 1052.23703,77.1488516 C1052.18006,77.0860542 1052.12536,77.0186052 1052.06839,76.953482 C1052.00915,76.8883588 1051.95445,76.8209098 1051.89521,76.7557867 C1051.83596,76.6906635 1051.78355,76.6232145 1051.7243,76.5580913 C1051.66505,76.4929681 1051.61036,76.4255191 1051.55111,76.3603959 C1051.49414,76.2952727 1051.43945,76.2278237 1051.3802,76.1627006 C1051.32323,76.0999032 1051.26854,76.0324542 1051.20929,75.967331 C1051.15004,75.9022078 1051.09763,75.8347588 1051.03838,75.7696357 C1050.97913,75.7045125 1050.92672,75.6370635 1050.86747,75.5719403 C1050.80822,75.5068171 1050.75353,75.4393681 1050.69428,75.3742449 C1050.63503,75.3091217 1050.58262,75.2439986 1050.52337,75.1788754 C1050.46412,75.1137522 1050.41171,75.0463032 1050.35246,74.9788542 C1050.29321,74.9160568 1050.23852,74.8486078 1050.18155,74.7834846 C1050.1223,74.7183615 1050.06761,74.6509125 1050.00836,74.5857893 C1049.95139,74.5206661 1049.8967,74.4555429 1049.83973,74.3904197 C1049.78048,74.3252966 1049.72579,74.2555217 1049.66654,74.1903986 C1049.60729,74.1276012 1049.55488,74.0601522 1049.49563,73.995029 C1049.43638,73.9299058 1049.38169,73.8624568 1049.32244,73.7973336 C1049.26547,73.7322105 1049.21078,73.6647615 1049.15153,73.5996383 C1049.09228,73.5345151 1049.03987,73.4670661 1048.98062,73.4019429 C1048.92137,73.3368197 1048.86668,73.2693707 1048.80743,73.2042475 C1048.75046,73.1414502 1048.69577,73.0740012 1048.6388,73.008878 C1048.57956,72.9437548 1048.52486,72.8763058 1048.46562,72.8111826 C1048.40637,72.7460595 1048.35395,72.6786105 1048.29471,72.6134873 C1048.23546,72.5483641 1048.18077,72.4809151 1048.12152,72.4157919 C1048.06455,72.3506687 1048.00986,72.2832197 1047.95289,72.2204224 C1047.89364,72.1552992 1047.83895,72.0855244 1047.7797,72.0204012 C1047.72045,71.9576038 1047.66804,71.8901548 1047.60879,71.8250316 C1047.54954,71.7599085 1047.49485,71.6924595 1047.4356,71.6273363 C1047.37863,71.5622131 1047.32394,71.4947641 1047.26469,71.4319667 C1047.20772,71.3668436 1047.15303,71.2970687 1047.09378,71.2319455 C1047.03453,71.1691482 1046.98212,71.1016992 1046.92287,71.036576 C1046.86362,70.9714528 1046.80893,70.9040038 1046.74968,70.8388806 C1046.69271,70.7737575 1046.63802,70.7063085 1046.57877,70.6411853 C1046.5218,70.5760621 1046.46711,70.5086131 1046.40786,70.4434899 C1046.34861,70.3783667 1046.29392,70.3109177 1046.23467,70.2457945 C1046.1777,70.1806714 1046.12301,70.1155482 1046.06604,70.050425 C1046.00679,69.9853018 1045.9521,69.9178528 1045.89285,69.8527296 C1045.8336,69.7876065 1045.78119,69.7201575 1045.72194,69.6550343 C1045.66269,69.5899111 1045.608,69.5224621 1045.54875,69.4573389 C1045.49178,69.3922157 1045.43709,69.3247667 1045.38012,69.2619694 C1045.32087,69.1968462 1045.26618,69.1270714 1045.20693,69.0619482 C1045.14769,68.9991508 1045.09527,68.9317018 1045.03602,68.8665786 C1044.97678,68.8014555 1044.92208,68.7340065 1044.86284,68.6688833 C1044.80587,68.6037601 1044.75117,68.5363111 1044.6942,68.4711879 C1044.63496,68.4060647 1044.58026,68.3386157 1044.52102,68.2734925 C1044.46177,68.2083694 1044.40935,68.1432462 1044.35011,68.078123 C1044.29086,68.0129998 1044.23617,67.9455508 1044.17692,67.8781018 C1044.11995,67.8153045 1044.06526,67.7478554 1044.00601,67.6827323 C1043.94904,67.6176091 1043.89435,67.5501601 1043.8351,67.4850369 C1043.77585,67.4199137 1043.72344,67.3524647 1043.66419,67.2873415 C1043.60494,67.2222184 1043.55253,67.1547694 1043.49328,67.091972 C1043.43403,67.0268488 1043.37934,66.957074 1043.32009,66.8919508 C1043.26312,66.8291535 1043.20843,66.7617044 1043.14918,66.6965813 C1043.08993,66.6314581 1043.03752,66.5640091 1042.97827,66.4988859 C1042.91902,66.4337627 1042.86661,66.3663137 1042.80736,66.3035164 C1042.74811,66.2360674 1042.69342,66.1686183 1042.63417,66.1034952 C1042.5772,66.038372 1042.52251,65.9732488 1042.46326,65.9081256 C1042.40401,65.8430025 1042.3516,65.7755534 1042.29235,65.7104303 C1042.2331,65.6453071 1042.17841,65.5778581 1042.12144,65.5127349 C1042.06219,65.4476117 1042.0075,65.3801627 1041.94825,65.3150395 C1041.889,65.2499164 1041.83659,65.1824673 1041.77734,65.11967 C1041.71809,65.0545468 1041.66568,64.984772 1041.60643,64.9196488 C1041.54718,64.8545256 1041.49249,64.7870766 1041.43324,64.7242793 C1041.37627,64.6591561 1041.32158,64.5917071 1041.26461,64.5265839 C1041.20536,64.4614607 1041.15067,64.3940117 1041.09142,64.3288885 C1041.03218,64.2637654 1040.97976,64.1963163 1040.92052,64.133519 C1040.86127,64.0683958 1040.80658,63.998621 1040.74733,63.9334978 C1040.69036,63.8707004 1040.63567,63.8032514 1040.57642,63.7381283 C1040.51945,63.6730051 1040.46476,63.6055561 1040.40551,63.5404329 C1037.418,60.2400832 1034.09552,57.1281256 1030.42665,54.2161891 C1011.55365,39.2401837 988.767944,33.5837704 962.684822,37.4051055 L962.646083,37.412083 C937.096199,41.1636433 915.083011,53.069556 897.217235,72.7949019 C896.476625,73.6135932 895.774755,74.441588 895.066049,75.2672568 L895.06377,75.130033 L894.895139,75.1556171 L894.892861,74.9323376 L894.72423,74.9579217 L894.721951,74.7346423 L894.551041,74.7602264 L894.548762,74.5392727 L894.380131,74.562531 L894.377852,74.3415774 L894.209221,74.3648356 L894.206942,74.143882 L894.038311,74.1694661 L894.036033,73.9461866 L893.865123,73.9717707 L893.862844,73.7484913 L893.694213,73.7740754 L893.691934,73.5507959 L893.523303,73.57638 L893.521024,73.3554264 L893.350114,73.3786846 L893.350114,73.157731 L893.179205,73.1833151 L893.176926,72.9600356 L893.008295,72.9856197 L893.006016,72.7623403 L892.837385,72.7879244 L892.835106,72.5646449 L892.664196,72.590229 L892.664196,72.3692754 L892.493286,72.3925336 L892.491008,72.17158 L892.322376,72.1948383 L892.320098,71.9738846 L892.151467,71.9994687 L892.149188,71.7761893 L891.978278,71.8017734 L891.978278,71.5784939 L891.807368,71.604078 L891.805089,71.3831244 L891.636458,71.4063826 L891.634179,71.185429 L891.465548,71.2086873 L891.46327,70.9877336 L891.29236,71.0133177 L891.29236,70.7900383 L891.12145,70.8156224 L891.119171,70.5923429 L890.95054,70.617927 L890.948261,70.3969734 L890.77963,70.4202316 L890.777351,70.199278 L890.606442,70.2225363 L890.604163,70.0015826 L890.435532,70.0271667 L890.433253,69.8038873 L890.264622,69.8294714 L890.262343,69.6061919 L890.093712,69.631776 L890.091433,69.4084965 L889.920523,69.4340806 L889.918245,69.213127 L889.749614,69.2363853 L889.747335,69.0154316 L889.578704,69.0410157 L889.576425,68.8177363 L889.407794,68.8433204 L889.405515,68.6200409 L889.234605,68.645625 L889.232326,68.4223455 L889.063695,68.4479296 L889.061417,68.226976 L888.892785,68.2502343 L888.890507,68.0292806 L888.721876,68.0525389 L888.719597,67.8315853 L888.548687,67.8571694 L888.546408,67.6338899 L888.377777,67.659474 L888.375498,67.4361945 L888.206867,67.4617786 L888.204588,67.240825 L888.035957,67.2640833 L888.033679,67.0431296 L887.862769,67.0663879 L887.86049,66.8454342 L887.691859,66.8710184 L887.68958,66.6477389 L887.520949,66.673323 L887.51867,66.4500435 L887.350039,66.4756276 L887.34776,66.254674 L887.176851,66.2779323 L887.174572,66.0569786 L887.005941,66.0825627 L887.003662,65.8592832 L886.835031,65.8848674 L886.832752,65.6615879 L886.661842,65.687172 L886.661842,65.4638925 L886.490932,65.4894766 L886.488654,65.268523 L886.320023,65.2917813 L886.317744,65.0708276 L886.149113,65.0940859 L886.146834,64.8731322 L885.975924,64.8987164 L885.975924,64.6754369 L885.805014,64.701021 L885.802735,64.4777415 L885.634104,64.5033256 L885.631826,64.2800461 L885.463194,64.3056303 L885.460916,64.0846766 L885.290006,64.1079349 L885.290006,63.8869812 L885.119096,63.9125653 L885.116817,63.6892859 L884.948186,63.71487 L884.945907,63.4915905 L884.777276,63.5171746 L884.774997,63.296221 L884.604088,63.3194793 L884.604088,63.0985256 L884.433178,63.1217839 L884.430899,62.9008302 L884.262268,62.9264143 L884.259989,62.7031349 L884.091358,62.728719 L884.089079,62.5054395 L883.918169,62.5310236 L883.915891,62.3077441 L883.74726,62.3333282 L883.744981,62.1123746 L883.57635,62.1356329 L883.574071,61.9146792 L883.40544,61.9402633 L883.403161,61.7169839 L883.232251,61.742568 L883.229972,61.5192885 L883.061341,61.5448726 L883.059063,61.3215931 L882.890432,61.3471772 L882.888153,61.1262236 L882.719522,61.1494819 L882.717243,60.9285282 L882.546333,60.9517865 L882.544054,60.7308329 L882.375423,60.756417 L882.373144,60.5331375 L882.204513,60.5587216 L882.202235,60.3354421 L882.033604,60.3610262 L882.031325,60.1400726 L881.860415,60.1633309 L881.858136,59.9423772 L881.689505,59.9656355 L881.687226,59.7446819 L881.518595,59.770266 L881.516316,59.5469865 L881.347685,59.5725706 L881.345407,59.3492911 L881.174497,59.3748752 L881.172218,59.1539216 L881.003587,59.1771799 L881.001308,58.9562262 L880.832677,58.9794845 L880.830398,58.7585309 L880.661767,58.784115 L880.659488,58.5608355 L880.488578,58.5864196 L880.4863,58.3631401 L880.317669,58.3887242 L880.31539,58.1654448 L880.146759,58.1910289 L880.14448,57.9700752 L879.975849,57.9933335 L879.97357,57.7723799 L879.80266,57.797964 L879.800381,57.5746845 L879.63175,57.6002686 L879.629472,57.3769891 L879.460841,57.4025732 L879.458562,57.1816196 L879.289931,57.2048779 L879.287652,56.9839242 L879.116742,57.0071825 L879.114463,56.7862289 L878.945832,56.811813 L878.943553,56.5885335 L878.774922,56.6141176 L878.772644,56.3908381 L878.604013,56.4164222 L878.601734,56.1931428 L878.430824,56.2187269 L878.428545,55.9977732 L878.259914,56.0210315 L878.257635,55.8000779 L878.089004,55.825662 L878.086725,55.6023825 L877.915816,55.6279666 L877.915816,55.4046871 L877.744906,55.4302712 L877.742627,55.2069918 L877.573996,55.2325759 L877.571717,55.0116222 L877.403086,55.0348805 L877.400807,54.8139269 L877.229897,54.839511 L877.229897,54.6162315 L877.058987,54.6418156 L877.056709,54.4185361 L876.888078,54.4441202 L876.885799,54.2208408 L876.717168,54.2464249 L876.714889,54.0254712 L876.543979,54.0487295 L876.543979,53.8277759 L876.373069,53.8510341 L876.37079,53.6300805 L876.202159,53.6556646 L876.199881,53.4323851 L876.03125,53.4579692 L876.028971,53.2346898 L875.858061,53.2602739 L875.855782,53.0393202 L875.687151,53.0625785 L875.684872,52.8416249 L875.516241,52.8648831 L875.513962,52.6439295 L875.345331,52.6695136 L875.343053,52.4462341 L875.172143,52.4718182 L875.169864,52.2485388 L875.001233,52.2741229 L874.998954,52.0531692 L874.830323,52.0764275 L874.828044,51.8554739 L874.659413,51.8787321 L874.657134,51.6577785 L874.486225,51.6833626 L874.483946,51.4600831 L874.315315,51.4856672 L874.313036,51.2623878 L874.144405,51.2879719 L874.142126,51.0646924 L873.973495,51.0902765 L873.971216,50.8693228 L873.800306,50.8925811 L873.798028,50.6716275 L873.629396,50.6972116 L873.627118,50.4739321 L841.341108,55.2116434 L832.041333,56.5769044 L832.100582,62.796168 L832.007151,62.810123 L832.004872,62.5868435 L831.833962,62.6124276 L831.831684,62.3914739 L831.663053,62.4147322 L831.660774,62.1937786 L831.492143,62.2170369 L831.489864,61.9960832 L831.321233,62.0216673 L831.318954,61.7983878 L831.148044,61.823972 L831.145765,61.6006925 L830.977134,61.6262766 L830.974856,61.4053229 L830.806225,61.4285812 L830.803946,61.2076276 L830.635315,61.2308859 L830.633036,61.0099322 L830.462126,61.0355163 L830.459847,60.8122368 L830.291216,60.837821 L830.288937,60.6145415 L830.120306,60.6401256 L830.118028,60.4168461 L829.949396,60.4424302 L829.947118,60.2214766 L829.776208,60.2447349 L829.773929,60.0237812 L829.605298,60.0493653 L829.603019,59.8260858 L829.434388,59.8516699 L829.432109,59.6283905 L829.263478,59.6539746 L829.261199,59.4306951 L829.09029,59.4562792 L829.088011,59.2353256 L828.91938,59.2585839 L828.917101,59.0376302 L828.74847,59.0608885 L828.746191,58.8399348 L828.57756,58.8655189 L828.575281,58.6422395 L828.404371,58.6678236 L828.402093,58.4445441 L828.233462,58.4701282 L828.231183,58.2491746 L828.062552,58.2724328 L828.060273,58.0514792 L827.889363,58.0747375 L827.889363,57.8537838 L827.718453,57.8793679 L827.716174,57.6560885 L827.547543,57.6816726 L827.545265,57.4583931 L827.376634,57.4839772 L827.374355,57.2630236 L754.245448,67.9920674 L743.469013,69.5736303 C728.087126,71.8320091 714.831358,79.0002105 704.070874,90.8828649 C703.904522,91.0666053 703.751842,91.2549974 703.587769,91.4387378 L703.569538,91.4410636 L703.56726,91.22011 L703.39635,91.2456941 L703.394071,91.0224146 L703.22544,91.0479987 L703.223161,90.8247192 L703.05453,90.8503033 L703.052251,90.6270239 L702.881341,90.652608 L702.881341,90.4316543 L702.710432,90.4549126 L702.708153,90.233959 L702.539522,90.2595431 L702.537243,90.0362636 L702.368612,90.0618477 L702.366333,89.8385682 L702.195423,89.8641523 L702.195423,89.6408729 L702.024513,89.666457 L702.022235,89.4455033 L701.853604,89.4687616 L701.851325,89.247808 L701.682694,89.2710662 L701.680415,89.0501126 L701.509505,89.0756967 L701.509505,88.8524172 L701.338595,88.8780013 L701.336316,88.6547219 L701.167685,88.680306 L701.165407,88.4593523 L700.996775,88.4826106 L700.994497,88.261657 L700.823587,88.2849152 L700.823587,88.0639616 L700.652677,88.0895457 L700.650398,87.8662662 L700.481767,87.8918503 L700.479488,87.6685709 L700.310857,87.694155 L700.308578,87.4732013 L700.137669,87.4964596 L700.137669,87.275506 L699.966759,87.2987642 L699.96448,87.0778106 L699.795849,87.1033947 L699.79357,86.8801152 L699.624939,86.9056993 L699.62266,86.6824199 L699.45175,86.708004 L699.45175,86.4847245 L699.280841,86.5103086 L699.278562,86.2893549 L699.109931,86.3126132 L699.107652,86.0916596 L698.939021,86.1172437 L698.936742,85.8939642 L698.765832,85.9195483 L698.763553,85.6962689 L698.594922,85.721853 L698.592644,85.4985735 L698.424013,85.5241576 L698.421734,85.3032039 L698.253103,85.3264622 L698.250824,85.1055086 L698.079914,85.1287669 L698.077635,84.9078132 L697.909004,84.9333973 L697.906725,84.7101178 L697.738094,84.735702 L697.735816,84.5124225 L697.567184,84.5380066 L697.564906,84.3170529 L697.393996,84.3403112 L697.391717,84.1193576 L697.223086,84.1449417 L697.220807,83.9216622 L697.052176,83.9472463 L697.049897,83.7239668 L696.881266,83.749551 L696.878987,83.5285973 L696.708078,83.5518556 L696.705799,83.3309019 L696.537168,83.3541602 L696.534889,83.1332066 L696.366258,83.1587907 L696.363979,82.9355112 L696.195348,82.9610953 L696.193069,82.7378158 L696.022159,82.7634 L696.019881,82.5401205 L695.85125,82.5657046 L695.848971,82.3447509 L695.68034,82.3680092 L695.678061,82.1470556 L695.50943,82.1726397 L695.507151,81.9493602 L695.336241,81.9749443 L695.333962,81.7516648 L695.165331,81.7772489 L695.163053,81.5539695 L694.994422,81.5795536 L694.992143,81.3585999 L694.821233,81.3818582 L694.821233,81.1609046 L694.650323,81.1841629 L694.648044,80.9632092 L694.479413,80.9887933 L694.477134,80.7655138 L694.308503,80.7910979 L694.306225,80.5678185 L694.135315,80.5934026 L694.135315,80.3724489 L693.964405,80.3957072 L693.962126,80.1747536 L693.793495,80.1980118 L693.791216,79.9770582 L693.622585,80.0026423 L693.620306,79.7793628 L693.449396,79.8049469 L693.449396,79.5816675 L693.278487,79.6072516 L693.276208,79.3862979 L693.107577,79.4095562 L693.105298,79.1886026 L692.936667,79.2118608 L692.934388,78.9909072 L692.763478,79.0164913 L692.763478,78.7932118 L692.592568,78.8187959 L692.59029,78.5955165 L692.421659,78.6211006 L692.41938,78.3978211 L692.250749,78.4234052 L692.24847,78.2024516 L692.07756,78.2257098 L692.075281,78.0047562 L691.90665,78.0303403 L691.904371,77.8070608 L691.73574,77.8326449 L691.733462,77.6093655 L691.564831,77.6349496 L691.562552,77.4116701 L691.391642,77.4372542 L691.389363,77.2163006 L671.607118,80.1166079 L649.803578,83.316947 L650.74928,183.506633 L544.058236,98.8348703 L530.093762,100.883925 L530.093762,100.883925 L424.311959,116.404174 L378.478495,123.130468 L289.076692,221.836275 L198.0615,149.605366 L187.583587,151.142738 L187.583587,151.142738 L150.161166,156.634018 L150.696684,213.460969 C150.694405,213.458643 150.692126,213.456318 150.689847,213.451666 C150.630598,213.386543 150.575907,213.319094 150.516659,213.253971 C150.459689,213.191173 150.404997,213.121398 150.345749,213.058601 C150.2865,212.993478 150.234088,212.926029 150.174839,212.85858 C150.11559,212.795783 150.063178,212.728334 150.003929,212.66321 C149.94468,212.598087 149.889989,212.530638 149.83074,212.465515 C149.77377,212.400392 149.719079,212.332943 149.659831,212.270145 C149.600582,212.202696 149.548169,212.135247 149.488921,212.070124 C149.429672,212.007327 149.374981,211.937552 149.315732,211.874755 C149.258762,211.809632 149.204071,211.742183 149.147101,211.677059 C149.087852,211.611936 149.033161,211.544487 148.973912,211.479364 C148.914664,211.414241 148.862251,211.346792 148.803003,211.283994 C148.743754,211.218871 148.691341,211.149096 148.629814,211.083973 C148.572844,211.021176 148.518153,210.953727 148.461183,210.888604 C148.401934,210.823481 148.347243,210.756032 148.287994,210.690908 C148.228745,210.625785 148.176333,210.558336 148.117084,210.493213 C148.057836,210.42809 148.005423,210.360641 147.943896,210.295518 C147.886926,210.230394 147.832235,210.162945 147.775265,210.100148 C147.716016,210.035025 147.661325,209.96525 147.602076,209.900127 C147.542827,209.83733 147.490415,209.769881 147.431166,209.704757 C147.371917,209.639634 147.317226,209.572185 147.257977,209.507062 C147.201008,209.441939 147.146316,209.37449 147.089346,209.311692 C147.030098,209.244243 146.975407,209.176794 146.916158,209.111671 C146.856909,209.046548 146.804497,208.979099 146.745248,208.913976 C146.685999,208.851179 146.633587,208.78373 146.574338,208.718606 C146.515089,208.653483 146.460398,208.586034 146.401149,208.520911 C146.341901,208.455788 146.289488,208.388339 146.23024,208.325541 C146.170991,208.258092 146.118578,208.190643 146.05933,208.12552 C146.000081,208.060397 145.947669,207.995274 145.88842,207.930151 C145.829171,207.865028 145.77448,207.795253 145.715231,207.732455 C145.655982,207.667332 145.60357,207.599883 145.544321,207.53476 C145.485073,207.469637 145.43266,207.402188 145.373412,207.337065 C145.314163,207.271941 145.26175,207.206818 145.202502,207.141695 C145.143253,207.076572 145.088562,207.006797 145.029313,206.941674 C144.970064,206.878877 144.917652,206.811428 144.858403,206.746304 C144.799154,206.681181 144.746742,206.613732 144.687493,206.548609 C144.628245,206.483486 144.575832,206.416037 144.516583,206.350914 C144.457335,206.28579 144.402644,206.218341 144.343395,206.153218 C144.284146,206.088095 144.231734,206.020646 144.172485,205.955523 C144.113236,205.892726 144.060824,205.825277 144.001575,205.760153 C143.942326,205.69503 143.887635,205.627581 143.828386,205.562458 C143.771417,205.497335 143.716725,205.429886 143.659755,205.364763 C143.600507,205.299639 143.545816,205.23219 143.486567,205.167067 C143.427318,205.101944 143.374906,205.034495 143.315657,204.971698 C143.256408,204.906575 143.201717,204.8368 143.142468,204.771677 C143.085498,204.708879 143.030807,204.64143 142.973837,204.576307 C142.914588,204.511184 142.859897,204.443735 142.800649,204.378612 C142.7414,204.313488 142.688987,204.246039 142.629739,204.180916 C142.57049,204.115793 142.515799,204.048344 142.45655,203.983221 C142.39958,203.920424 142.344889,203.852975 142.28564,203.787851 C142.226391,203.722728 142.173979,203.655279 142.11473,203.590156 C142.055482,203.525033 142.003069,203.457584 141.943821,203.392461 C141.884572,203.327337 141.829881,203.259888 141.770632,203.194765 C141.711383,203.129642 141.658971,203.062193 141.599722,202.99707 C141.540473,202.934273 141.488061,202.866824 141.428812,202.8017 C141.369563,202.736577 141.317151,202.669128 141.255624,202.604005 C141.198654,202.538882 141.143962,202.471433 141.086992,202.40631 C141.027744,202.341186 140.973053,202.273737 140.913804,202.208614 C140.854555,202.143491 140.802143,202.076042 140.742894,202.013245 C140.683645,201.948122 140.631233,201.878347 140.569705,201.813224 C140.512735,201.750426 140.458044,201.682977 140.401074,201.617854 C140.341826,201.552731 140.287134,201.485282 140.227886,201.420159 C140.168637,201.355035 140.116225,201.287586 140.056976,201.224789 C139.997727,201.15734 139.945315,201.089891 139.883787,201.024768 C139.826817,200.959645 139.772126,200.892196 139.715156,200.829398 C139.655907,200.764275 139.601216,200.6945 139.541967,200.631703 C139.482719,200.56658 139.430306,200.499131 139.371058,200.434008 C139.311809,200.368884 139.259396,200.301435 139.200148,200.236312 C139.140899,200.171189 139.086208,200.10374 139.026959,200.038617 C138.96771,199.973494 138.915298,199.906045 138.856049,199.843247 C138.796801,199.778124 138.744388,199.708349 138.685139,199.645552 C138.625891,199.580429 138.573478,199.51298 138.51423,199.447857 C138.454981,199.382733 138.40029,199.315284 138.341041,199.250161 C138.281792,199.185038 138.22938,199.117589 138.170131,199.054792 C138.110882,198.989669 138.05847,198.919894 137.999221,198.854771 C137.939972,198.791973 137.88756,198.724524 137.828311,198.659401 C137.769063,198.594278 137.714371,198.526829 137.655123,198.461706 C137.595874,198.396582 137.543462,198.329133 137.484213,198.26401 C137.424964,198.198887 137.372552,198.131438 137.313303,198.066315 C137.254054,198.001192 137.201642,197.933743 137.142393,197.870945 C137.083144,197.805822 137.028453,197.736047 136.969205,197.670924 C136.909956,197.608127 136.857543,197.538352 136.798295,197.475555 C136.739046,197.410431 136.686634,197.342982 136.627385,197.277859 C136.568136,197.212736 136.513445,197.145287 136.454196,197.080164 C136.397226,197.015041 136.342535,196.947592 136.285565,196.884794 C136.226316,196.819671 136.171625,196.749896 136.112376,196.684773 C136.053128,196.621976 136.000715,196.554527 135.941467,196.489404 C135.882218,196.42428 135.827527,196.356831 135.768278,196.291708 C132.76938,192.991359 129.430941,189.879401 125.743846,186.967464 C106.866283,171.984482 84.0737454,166.330394 57.9837871,170.158707 L-0.000227879799,178.666585 L1.56758514,344.828377 L1.56758514,359.955561 L4.76929633,363.681538 L60.7935451,430.349067 L61.9352229,430.181607 L128.277869,507.357226 L216.941341,494.255838 L216.740807,494.020929 L216.941341,493.990694 L216.740807,493.758111 L216.941341,493.727875 L216.740807,493.492966 L216.941341,493.465057 L216.740807,493.230148 L216.941341,493.199912 L216.740807,492.967329 L216.941341,492.937094 L216.740807,492.702185 L216.941341,492.671949 L216.740807,492.439366 L216.941341,492.409131 L216.740807,492.174222 L216.941341,492.146312 L216.740807,491.911404 L216.941341,491.881168 L216.740807,491.648585 L216.941341,491.618349 L216.740807,491.383441 L216.941341,491.353205 L216.740807,491.120622 L216.941341,491.090386 L216.740807,490.855478 L216.941341,490.827568 L216.740807,490.592659 L216.941341,490.562423 L216.740807,490.329841 L216.941341,490.299605 L216.740807,490.064696 L216.941341,490.036786 L216.740807,489.801878 L216.941341,489.771642 L216.740807,489.536733 L216.941341,489.508823 L216.740807,489.273915 L216.941341,489.243679 L216.740807,489.011096 L216.941341,488.98086 L216.740807,488.745952 L216.941341,488.718042 L216.740807,488.483133 L216.941341,488.452898 L216.740807,488.220315 L216.941341,488.190079 L216.740807,487.95517 L216.941341,487.924935 L216.740807,487.692352 L216.941341,487.662116 L216.740807,487.427207 L216.941341,487.399298 L216.740807,487.164389 L216.941341,487.134153 L216.740807,486.90157 L216.941341,486.871335 L216.740807,486.636426 L216.941341,486.60619 L216.740807,486.373607 L216.941341,486.343372 L216.740807,486.110789 L216.941341,486.080553 L216.740807,485.845645 L216.941341,485.815409 L216.740807,485.582826 L216.941341,485.55259 L216.740807,485.317682 L216.941341,485.289772 L216.740807,485.054863 L216.941341,485.024627 L216.740807,484.792045 L216.941341,484.761809 L216.740807,484.5269 L216.941341,484.496664 L216.740807,484.264082 L216.941341,484.233846 L216.740807,483.998937 L216.941341,483.971027 L216.740807,483.736119 L216.941341,483.705883 L216.740807,483.4733 L216.941341,483.443064 L216.740807,483.208156 L216.941341,483.17792 L216.740807,482.945337 L216.941341,482.915101 L216.740807,482.680193 L216.941341,482.652283 L216.740807,482.417374 L216.941341,482.387139 L216.740807,482.154556 L216.941341,482.12432 L216.740807,481.889411 L216.941341,481.861501 L216.740807,481.626593 L216.941341,481.596357 L216.740807,481.363774 L216.941341,481.333539 L216.740807,481.09863 L216.941341,481.068394 L216.740807,480.835811 L216.941341,480.805576 L216.740807,480.570667 L216.941341,480.542757 L216.740807,480.307848 L216.941341,480.277613 L216.740807,480.04503 L216.941341,480.014794 L216.740807,479.779886 L216.941341,479.74965 L216.740807,479.517067 L216.941341,479.486831 L216.740807,479.251923 L216.941341,479.224013 L216.740807,478.989104 L216.941341,478.958868 L216.740807,478.726286 L216.941341,478.69605 L216.740807,478.461141 L216.941341,478.433231 L216.740807,478.198323 L216.941341,478.168087 L216.740807,477.933178 L216.941341,477.905268 L216.740807,477.67036 L216.941341,477.640124 L216.740807,477.407541 L216.941341,477.377305 L216.740807,477.142397 L216.941341,477.114487 L216.740807,476.879578 L216.941341,476.849342 L216.740807,476.61676 L216.941341,476.586524 L216.740807,476.351615 L216.941341,476.32138 L216.740807,476.088797 L216.941341,476.058561 L216.740807,475.823652 L216.941341,475.795742 L216.740807,475.560834 L216.941341,475.530598 L216.740807,475.298015 L216.941341,475.26778 L216.740807,475.032871 L216.941341,475.002635 L216.740807,474.770052 L216.941341,474.739817 L216.740807,474.504908 L216.941341,474.476998 L216.740807,474.242089 L216.941341,474.211854 L216.740807,473.979271 L216.941341,473.949035 L216.740807,473.714127 L216.941341,473.686217 L216.740807,473.451308 L216.941341,473.421072 L216.740807,473.186164 L216.941341,473.158254 L216.740807,472.923345 L216.941341,472.893109 L216.740807,472.660527 L216.941341,472.630291 L216.740807,472.395382 L216.941341,472.367472 L216.740807,472.132564 L216.941341,472.102328 L216.740807,471.869745 L216.941341,471.839509 L216.740807,471.604601 L216.941341,471.574365 L216.740807,471.341782 L216.941341,471.311546 L216.740807,471.076638 L216.941341,471.048728 L216.740807,470.813819 L216.941341,470.783584 L216.740807,470.551001 L216.941341,470.520765 L216.740807,470.285856 L216.941341,470.255621 L216.740807,470.023038 L216.941341,469.992802 L216.740807,469.757893 L216.941341,469.729983 L216.740807,469.495075 L216.941341,469.464839 L216.740807,469.232256 L216.941341,469.202021 L216.740807,468.967112 L216.941341,468.939202 L216.740807,468.704293 L216.941341,468.674058 L216.740807,468.439149 L216.941341,468.411239 L216.740807,468.17633 L216.941341,468.146095 L216.740807,467.913512 L216.941341,467.883276 L216.740807,467.648368 L216.941341,467.620458 L216.740807,467.385549 L216.941341,467.355313 L216.740807,467.120405 L216.941341,467.092495 L216.740807,466.857586 L216.941341,466.82735 L216.740807,466.594768 L216.941341,466.564532 L216.740807,466.329623 L216.941341,466.301713 L216.740807,466.066805 L216.941341,466.036569 L216.740807,465.803986 L216.941341,465.77375 L216.740807,465.538842 L216.941341,465.508606 L216.740807,465.276023 L216.941341,465.245787 L216.740807,465.013205 L216.941341,464.982969 L216.740807,464.74806 L216.941341,464.717825 L216.740807,464.485242 L216.941341,464.455006 L216.740807,464.220097 L216.941341,464.189862 L216.740807,463.957279 L216.941341,463.927043 L216.740807,463.692134 L216.941341,463.664224 L216.740807,463.429316 L216.941341,463.39908 L216.740807,463.166497 L216.941341,463.136262 L216.740807,462.901353 L216.941341,462.873443 L216.740807,462.638534 L216.941341,462.608299 L216.740807,462.37339 L216.941341,462.34548 L216.740807,462.110572 L216.941341,462.080336 L216.740807,461.847753 L216.941341,461.817517 L216.740807,461.582609 L216.941341,461.554699 L216.740807,461.31979 L216.941341,461.289554 L216.740807,461.056971 L216.941341,461.026736 L216.740807,460.791827 L216.941341,460.761591 L216.740807,460.529009 L216.941341,460.498773 L216.740807,460.263864 L216.941341,460.235954 L216.740807,460.001046 L216.941341,459.97081 L216.740807,459.738227 L216.941341,459.707991 L216.740807,459.473083 L216.941341,459.442847 L216.740807,459.210264 L216.941341,459.180028 L216.740807,458.94512 L216.941341,458.91721 L216.740807,458.682301 L216.941341,458.652066 L216.740807,458.419483 L216.941341,458.389247 L216.740807,458.154338 L216.941341,458.126428 L216.740807,457.89152 L216.941341,457.861284 L216.740807,457.628701 L216.941341,457.598466 L216.740807,457.363557 L216.941341,457.333321 L216.740807,457.100738 L216.941341,457.070503 L216.740807,456.835594 L216.941341,456.807684 L216.740807,456.572775 L216.941341,456.54254 L216.740807,456.309957 L216.941341,456.279721 L216.740807,456.044813 L216.941341,456.014577 L216.740807,455.781994 L216.941341,455.751758 L216.740807,455.51685 L216.941341,455.48894 L216.740807,455.254031 L216.941341,455.223795 L216.740807,454.991213 L216.941341,454.960977 L216.740807,454.726068 L216.941341,454.698158 L216.740807,454.46325 L216.941341,454.433014 L216.740807,454.200431 L216.941341,454.170195 L216.740807,453.935287 L216.941341,453.905051 L216.740807,453.672468 L216.941341,453.642232 L216.740807,453.407324 L216.941341,453.379414 L216.740807,453.144505 L216.941341,453.114269 L216.740807,452.881687 L216.941341,452.851451 L216.740807,452.616542 L216.941341,452.586307 L216.740807,452.353724 L216.941341,452.323488 L216.740807,452.088579 L216.941341,452.060669 L216.740807,451.825761 L216.941341,451.795525 L216.740807,451.562942 L216.941341,451.532707 L216.740807,451.297798 L216.941341,451.269888 L216.740807,451.034979 L216.941341,451.004744 L216.740807,450.769835 L216.941341,450.741925 L216.740807,450.507016 L216.941341,450.476781 L216.740807,450.244198 L216.941341,450.213962 L216.740807,449.979054 L216.941341,449.951144 L216.740807,449.716235 L216.941341,449.685999 L216.740807,449.453416 L216.941341,449.423181 L216.740807,449.188272 L216.941341,449.158036 L216.740807,448.925454 L216.941341,448.895218 L216.740807,448.660309 L216.941341,448.632399 L216.740807,448.397491 L216.941341,448.367255 L216.740807,448.134672 L216.941341,448.104436 L216.740807,447.869528 L216.941341,447.839292 L216.740807,447.606709 L216.941341,447.576473 L216.740807,447.341565 L216.941341,447.313655 L216.740807,447.078746 L216.941341,447.04851 L216.740807,446.815928 L216.941341,446.785692 L216.740807,446.550783 L216.941341,446.522873 L216.740807,446.287965 L216.941341,446.257729 L216.740807,446.02282 L216.941341,445.99491 L216.740807,445.760002 L216.941341,445.729766 L216.740807,445.497183 L216.941341,445.466948 L216.740807,445.232039 L216.941341,445.204129 L216.740807,444.96922 L216.941341,444.938985 L216.740807,444.706402 L216.941341,444.676166 L216.740807,444.441257 L216.941341,444.411022 L216.740807,444.178439 L216.941341,444.148203 L216.740807,443.913295 L216.941341,443.885385 L216.740807,443.650476 L216.941341,443.62024 L216.740807,443.387657 L216.941341,443.357422 L216.740807,443.122513 L216.941341,443.092277 L216.740807,442.859695 L216.941341,442.829459 L216.740807,442.59455 L216.941341,442.56664 L216.740807,442.331732 L216.941341,442.301496 L216.740807,442.068913 L216.941341,442.038677 L216.740807,441.803769 L216.941341,441.775859 L216.740807,441.54095 L216.941341,441.510714 L216.740807,441.275806 L216.941341,441.247896 L216.740807,441.012987 L216.941341,440.982751 L216.740807,440.750169 L216.941341,440.719933 L216.740807,440.485024 L216.941341,440.457114 L216.740807,440.222206 L216.941341,440.19197 L216.740807,439.959387 L216.941341,439.929151 L216.740807,439.694243 L216.941341,439.664007 L216.740807,439.431424 L216.941341,439.401189 L216.740807,439.16628 L216.941341,439.13837 L216.740807,438.903461 L216.941341,438.873226 L216.740807,438.640643 L216.941341,438.610407 L216.740807,438.375498 L216.941341,438.345263 L216.740807,438.11268 L216.941341,438.082444 L216.740807,437.849861 L216.941341,437.819626 L216.740807,437.584717 L216.941341,437.554481 L216.740807,437.321898 L216.941341,437.291663 L216.740807,437.056754 L216.941341,437.028844 L216.740807,436.793936 L216.941341,436.7637 L216.900323,436.717183 L302.621867,424.053051 L302.421333,423.818142 L302.621867,423.787906 L302.421333,423.555323 L302.621867,423.525088 L302.421333,423.290179 L302.621867,423.262269 L302.421333,423.027361 L302.621867,422.997125 L302.421333,422.762216 L302.621867,422.734306 L302.421333,422.499398 L302.621867,422.469162 L302.421333,422.236579 L302.621867,422.206343 L302.421333,421.971435 L302.621867,421.943525 L302.421333,421.708616 L302.621867,421.67838 L302.421333,421.445798 L302.621867,421.415562 L302.421333,421.180653 L302.621867,421.150418 L302.421333,420.917835 L302.621867,420.887599 L302.421333,420.65269 L302.621867,420.62478 L302.421333,420.389872 L302.621867,420.359636 L302.421333,420.127053 L302.621867,420.096817 L302.421333,419.861909 L302.621867,419.831673 L302.421333,419.59909 L302.621867,419.568855 L302.421333,419.333946 L302.621867,419.306036 L302.421333,419.071127 L302.621867,419.040892 L302.421333,418.808309 L302.621867,418.778073 L302.421333,418.543164 L302.621867,418.515255 L302.421333,418.280346 L302.621867,418.25011 L302.421333,418.015202 L302.621867,417.987292 L302.421333,417.752383 L302.621867,417.722147 L302.421333,417.489564 L302.621867,417.459329 L302.421333,417.22442 L302.621867,417.19651 L302.421333,416.961602 L302.621867,416.931366 L302.421333,416.698783 L302.621867,416.668547 L302.421333,416.433639 L302.621867,416.403403 L302.421333,416.17082 L302.621867,416.140584 L302.421333,415.905676 L302.621867,415.877766 L302.421333,415.642857 L302.621867,415.612621 L302.421333,415.380039 L302.621867,415.349803 L302.421333,415.114894 L302.621867,415.084659 L302.421333,414.852076 L302.621867,414.82184 L302.421333,414.586931 L302.621867,414.559021 L302.421333,414.324113 L302.621867,414.293877 L302.421333,414.061294 L302.621867,414.031058 L302.421333,413.79615 L302.621867,413.76824 L302.421333,413.533331 L302.621867,413.503096 L302.421333,413.268187 L302.621867,413.240277 L302.421333,413.005368 L302.621867,412.975133 L302.421333,412.74255 L302.621867,412.712314 L302.421333,412.477406 L302.621867,412.449496 L302.421333,412.214587 L302.621867,412.184351 L302.421333,411.951768 L302.621867,411.921533 L302.421333,411.686624 L302.621867,411.656388 L302.421333,411.423805 L302.621867,411.39357 L302.421333,411.158661 L302.621867,411.130751 L302.421333,410.895843 L302.621867,410.865607 L302.421333,410.633024 L302.621867,410.602788 L302.421333,410.36788 L302.621867,410.337644 L302.421333,410.105061 L302.621867,410.074825 L302.421333,409.839917 L302.621867,409.812007 L302.421333,409.577098 L302.621867,409.546862 L302.421333,409.31428 L302.621867,409.284044 L302.421333,409.049135 L302.621867,409.021225 L302.421333,408.786317 L302.621867,408.756081 L302.421333,408.523498 L302.621867,408.493262 L302.421333,408.258354 L302.621867,408.228118 L302.421333,407.995535 L302.621867,407.9653 L302.421333,407.730391 L302.621867,407.702481 L302.421333,407.467572 L302.621867,407.437337 L302.421333,407.204754 L302.621867,407.174518 L302.421333,406.939609 L302.621867,406.909374 L302.421333,406.676791 L302.621867,406.646555 L302.421333,406.411647 L302.621867,406.383737 L302.421333,406.148828 L302.621867,406.118592 L302.421333,405.886009 L302.621867,405.855774 L302.421333,405.620865 L302.621867,405.590629 L302.421333,405.358047 L302.621867,405.327811 L302.421333,405.095228 L302.621867,405.064992 L302.421333,404.830084 L302.621867,404.799848 L302.421333,404.567265 L302.621867,404.537029 L302.421333,404.302121 L302.621867,404.274211 L302.421333,404.039302 L302.621867,404.009066 L302.421333,403.776484 L302.621867,403.746248 L302.421333,403.511339 L302.621867,403.481103 L302.421333,403.248521 L302.621867,403.218285 L302.421333,402.983376 L302.621867,402.955466 L302.421333,402.720558 L302.621867,402.690322 L302.421333,402.457739 L302.621867,402.427503 L302.421333,402.192595 L302.621867,402.164685 L302.421333,401.929776 L302.621867,401.899541 L302.421333,401.664632 L302.621867,401.636722 L302.421333,401.401813 L302.621867,401.371578 L302.421333,401.138995 L302.621867,401.108759 L302.421333,400.87385 L302.621867,400.845941 L302.421333,400.611032 L302.621867,400.580796 L302.421333,400.348213 L302.621867,400.317978 L302.421333,400.083069 L302.621867,400.052833 L302.421333,399.82025 L302.621867,399.790015 L302.421333,399.555106 L302.621867,399.527196 L302.421333,399.292288 L302.621867,399.262052 L302.421333,399.029469 L302.621867,398.999233 L302.421333,398.764325 L302.621867,398.734089 L302.421333,398.501506 L302.621867,398.47127 L302.421333,398.236362 L302.621867,398.208452 L302.421333,397.973543 L302.621867,397.943307 L302.421333,397.710725 L302.621867,397.680489 L302.421333,397.44558 L302.621867,397.41767 L302.421333,397.182762 L302.621867,397.152526 L302.421333,396.917617 L302.621867,396.889707 L302.421333,396.654799 L302.621867,396.624563 L302.421333,396.39198 L302.621867,396.361744 L302.421333,396.126836 L302.621867,396.098926 L302.421333,395.864017 L302.621867,395.833782 L302.421333,395.601199 L302.621867,395.570963 L302.421333,395.336054 L302.621867,395.305819 L302.421333,395.073236 L302.621867,395.043 L302.421333,394.808091 L302.621867,394.780182 L302.421333,394.545273 L302.621867,394.515037 L302.421333,394.282454 L302.621867,394.252219 L302.421333,394.01731 L302.621867,393.987074 L302.421333,393.754491 L302.621867,393.724256 L302.421333,393.489347 L302.621867,393.461437 L302.421333,393.226529 L302.621867,393.196293 L302.421333,392.96371 L302.621867,392.933474 L302.421333,392.698566 L302.621867,392.670656 L302.421333,392.435747 L302.621867,392.405511 L302.421333,392.170603 L302.621867,392.142693 L302.421333,391.907784 L302.621867,391.877548 L302.421333,391.644966 L302.621867,391.61473 L302.421333,391.379821 L302.621867,391.351911 L302.421333,391.117003 L302.621867,391.086767 L302.421333,390.854184 L302.621867,390.823948 L302.421333,390.58904 L302.621867,390.558804 L302.421333,390.326221 L302.621867,390.295985 L302.421333,390.061077 L302.621867,390.033167 L302.421333,389.798258 L302.621867,389.768023 L302.421333,389.53544 L302.621867,389.505204 L302.421333,389.270295 L302.621867,389.24006 L302.421333,389.007477 L302.621867,388.977241 L302.421333,388.742332 L302.621867,388.714423 L302.421333,388.479514 L302.621867,388.449278 L302.421333,388.216695 L302.621867,388.18646 L302.421333,387.951551 L302.621867,387.921315 L302.421333,387.688732 L302.621867,387.658497 L302.421333,387.425914 L302.621867,387.395678 L302.421333,387.16077 L302.621867,387.130534 L302.421333,386.897951 L302.621867,386.867715 L302.421333,386.632807 L302.621867,386.604897 L302.421333,386.369988 L302.621867,386.339752 L302.421333,386.104844 L302.621867,386.076934 L302.421333,385.842025 L302.621867,385.811789 L302.421333,385.579207 L302.621867,385.548971 L302.421333,385.314062 L302.621867,385.286152 L302.421333,385.051244 L302.621867,385.021008 L302.421333,384.788425 L302.621867,384.758189 L302.421333,384.523281 L302.621867,384.493045 L302.421333,384.260462 L302.621867,384.230226 L302.421333,383.997644 L302.621867,383.967408 L302.421333,383.732499 L302.621867,383.702264 L302.421333,383.469681 L302.621867,383.439445 L302.421333,383.204536 L302.621867,383.174301 L302.421333,382.941718 L302.621867,382.911482 L302.421333,382.676573 L302.621867,382.648664 L302.421333,382.413755 L302.621867,382.383519 L302.421333,382.150936 L302.621867,382.120701 L302.421333,381.885792 L302.621867,381.857882 L302.421333,381.622973 L302.621867,381.592738 L302.421333,381.360155 L302.621867,381.329919 L302.421333,381.095011 L302.621867,381.064775 L302.421333,380.832192 L302.621867,380.801956 L302.421333,380.567048 L302.621867,380.539138 L302.421333,380.304229 L302.621867,380.273993 L302.421333,380.041411 L302.621867,380.011175 L302.421333,379.776266 L302.621867,379.74603 L302.421333,379.513448 L302.621867,379.483212 L302.421333,379.248303 L302.621867,379.220393 L302.421333,378.985485 L302.621867,378.955249 L302.421333,378.722666 L302.621867,378.69243 L302.421333,378.457522 L302.621867,378.427286 L302.421333,378.194703 L302.621867,378.164467 L302.421333,377.931885 L302.621867,377.901649 L302.421333,377.66674 L302.621867,377.636505 L302.421333,377.403922 L302.621867,377.373686 L302.421333,377.138777 L302.621867,377.110867 L302.421333,376.875959 L302.621867,376.845723 L302.421333,376.61314 L302.621867,376.582905 L302.421333,376.347996 L302.621867,376.31776 L302.421333,376.085177 L302.621867,376.054942 L302.421333,375.820033 L302.621867,375.792123 L302.421333,375.557214 L302.621867,375.526979 L302.421333,375.294396 L302.621867,375.26416 L302.421333,375.029252 L302.621867,375.001342 L302.421333,374.766433 L302.621867,374.736197 L302.421333,374.501289 L302.621867,374.473379 L302.421333,374.23847 L302.621867,374.208234 L302.421333,373.975652 L302.621867,373.945416 L302.421333,373.710507 L302.621867,373.682597 L302.421333,373.447689 L302.621867,373.417453 L302.421333,373.18487 L302.621867,373.154634 L302.421333,372.919726 L302.621867,372.88949 L302.421333,372.656907 L302.621867,372.626671 L302.421333,372.391763 L302.621867,372.363853 L302.421333,372.128944 L302.621867,372.098708 L302.421333,371.866126 L302.621867,371.83589 L302.421333,371.600981 L302.621867,371.570746 L302.421333,371.338163 L302.621867,371.307927 L302.421333,371.073018 L302.621867,371.045108 L302.421333,370.8102 L302.621867,370.779964 L302.421333,370.547381 L302.621867,370.517146 L302.421333,370.282237 L302.621867,370.254327 L302.421333,370.019418 L302.621867,369.989183 L302.421333,369.754274 L302.621867,369.726364 L302.421333,369.491455 L302.621867,369.46122 L302.421333,369.228637 L302.621867,369.198401 L302.421333,368.963493 L302.621867,368.935583 L302.421333,368.700674 L302.621867,368.670438 L302.421333,368.437855 L302.621867,368.40762 L302.421333,368.172711 L302.621867,368.142475 L302.421333,367.909893 L302.621867,367.879657 L302.421333,367.644748 L302.621867,367.616838 L302.421333,367.38193 L302.621867,367.351694 L302.421333,367.119111 L302.621867,367.088875 L302.421333,366.853967 L302.621867,366.823731 L302.421333,366.591148 L302.621867,366.560912 L302.505649,366.426014 L314.375907,364.670014 L314.375907,364.651408 L317.769038,364.144377 L317.769038,372.135922 C317.985523,381.981151 322.112427,391.649617 330.090498,400.931996 C347.006016,420.613151 377.092986,434.200637 422.060507,442.475933 C445.331592,446.755456 469.126801,448.897544 493.256992,448.897544 C513.670465,448.897544 534.327769,447.364823 555.096734,444.29473 C602.037694,437.359112 635.816316,425.008966 658.360465,406.537241 C671.985398,395.377919 679.437068,383.367344 680.508103,370.845087 C680.631158,369.421681 680.667619,368.002926 680.6266,366.586496 C680.624321,366.498115 680.628879,366.409734 680.6266,366.321352 C680.624321,366.235296 680.628879,366.146915 680.6266,366.058534 C680.624321,365.970152 680.628879,365.881771 680.6266,365.795715 C680.624321,365.707334 680.628879,365.618952 680.6266,365.530571 C680.624321,365.442189 680.628879,365.353808 680.6266,365.267752 C680.624321,365.179371 680.628879,365.090989 680.6266,365.002608 C680.624321,364.916552 680.628879,364.828171 680.6266,364.739789 C680.624321,364.651408 680.628879,364.563026 680.6266,364.476971 C680.624321,364.388589 680.628879,364.300208 680.6266,364.211826 C680.624321,364.123445 680.628879,364.035063 680.6266,363.949008 C680.624321,363.860626 680.628879,363.772245 680.6266,363.683863 C680.624321,363.597808 680.628879,363.509426 680.6266,363.421045 C680.624321,363.332663 680.628879,363.244282 680.6266,363.158226 C680.624321,363.069845 680.628879,362.981463 680.6266,362.893082 C680.624321,362.8047 680.628879,362.718645 680.6266,362.630263 C680.624321,362.541882 680.628879,362.4535 680.6266,362.365119 C680.624321,362.279063 680.628879,362.190682 680.6266,362.1023 C680.624321,362.013919 680.628879,361.925538 680.6266,361.839482 C680.624321,361.7511 680.628879,361.662719 680.6266,361.574338 C680.624321,361.488282 680.628879,361.3999 680.6266,361.311519 C680.624321,361.223138 680.628879,361.134756 680.6266,361.0487 C680.624321,360.960319 680.628879,360.871938 680.6266,360.783556 C680.624321,360.695175 680.628879,360.609119 680.6266,360.520737 C680.624321,360.432356 680.628879,360.343975 680.6266,360.255593 C680.624321,360.169537 680.628879,360.081156 680.6266,359.992775 C680.624321,359.904393 680.628879,359.816012 680.6266,359.729956 C680.624321,359.641575 680.628879,359.553193 680.6266,359.464812 C680.624321,359.378756 680.628879,359.290375 680.6266,359.201993 C680.624321,359.113612 680.628879,359.02523 680.6266,358.936849 C680.624321,358.850793 680.628879,358.762412 680.6266,358.67403 C680.624321,358.585649 680.628879,358.497267 680.6266,358.411212 C680.624321,358.32283 680.628879,358.234449 680.6266,358.146067 C680.624321,358.060012 680.628879,357.97163 680.6266,357.883249 C680.624321,357.794867 680.628879,357.706486 680.6266,357.618104 C680.624321,357.532049 680.628879,357.443667 680.6266,357.355286 C680.624321,357.266904 680.628879,357.178523 680.6266,357.092467 C680.624321,357.004086 680.628879,356.915704 680.6266,356.827323 C680.624321,356.741267 680.628879,356.652886 680.6266,356.564504 C680.624321,356.476123 680.628879,356.387741 680.6266,356.301686 C680.624321,356.213304 680.628879,356.124923 680.6266,356.036541 C680.624321,355.94816 680.628879,355.862104 680.6266,355.773723 C680.624321,355.685341 680.628879,355.59696 680.6266,355.508579 C680.624321,355.422523 680.628879,355.334141 680.6266,355.24576 C680.624321,355.157379 680.628879,355.068997 680.6266,354.982941 C680.624321,354.89456 680.628879,354.806179 680.6266,354.717797 C680.624321,354.631741 680.628879,354.54336 680.6266,354.454979 C680.624321,354.366597 680.628879,354.278216 680.6266,354.19216 C680.624321,354.103779 680.628879,354.015397 680.6266,353.927016 C680.624321,353.838634 680.628879,353.750253 680.6266,353.664197 C680.624321,353.575816 680.628879,353.487434 680.6266,353.399053 C680.624321,353.312997 680.628879,353.224616 680.6266,353.136234 C680.624321,353.047853 680.628879,352.959471 680.6266,352.873416 C680.624321,352.785034 680.628879,352.696653 680.6266,352.608271 C680.624321,352.51989 680.628879,352.431508 680.6266,352.345453 C680.624321,352.257071 680.628879,352.16869 680.6266,352.080308 C680.624321,351.994253 680.628879,351.905871 680.6266,351.81749 C680.624321,351.729108 680.628879,351.640727 680.6266,351.554671 C680.624321,351.46629 680.628879,351.377908 680.6266,351.289527 C680.624321,351.201145 680.628879,351.11509 680.6266,351.026708 C680.624321,350.938327 680.628879,350.849945 680.6266,350.761564 C680.624321,350.675508 680.628879,350.587127 680.6266,350.498745 C680.624321,350.410364 680.628879,350.321982 680.6266,350.235927 C680.624321,350.147545 680.628879,350.059164 680.6266,349.970782 C680.624321,349.884727 680.628879,349.796345 680.6266,349.707964 C680.624321,349.619582 680.628879,349.531201 680.6266,349.445145 C680.624321,349.356764 680.628879,349.268382 680.6266,349.180001 C680.624321,349.09162 680.628879,349.003238 680.6266,348.917182 C680.624321,348.828801 680.628879,348.74042 680.6266,348.652038 C680.624321,348.565982 680.628879,348.477601 680.6266,348.38922 C680.624321,348.300838 680.628879,348.212457 680.6266,348.126401 C680.624321,348.03802 680.628879,347.949638 680.6266,347.861257 C680.624321,347.772875 680.628879,347.684494 680.6266,347.598438 C680.624321,347.510057 680.628879,347.421675 680.6266,347.333294 C680.624321,347.247238 680.628879,347.158857 680.6266,347.070475 C680.624321,346.982094 680.628879,346.893712 680.6266,346.807657 C680.624321,346.719275 680.628879,346.630894 680.6266,346.542512 C680.624321,346.454131 680.628879,346.368075 680.6266,346.279694 C680.624321,346.191312 680.628879,346.102931 680.6266,346.014549 C680.624321,345.928494 680.628879,345.840112 680.6266,345.751731 C680.624321,345.663349 680.628879,345.574968 680.6266,345.488912 C680.624321,345.400531 680.628879,345.312149 680.6266,345.223768 C680.624321,345.135386 680.628879,345.049331 680.6266,344.960949 C680.624321,344.872568 680.628879,344.784186 680.6266,344.698131 C680.624321,344.609749 680.628879,344.521368 680.6266,344.432986 C680.624321,344.344605 680.628879,344.256223 680.6266,344.170168 C680.624321,344.081786 680.628879,343.993405 680.6266,343.905023 C680.624321,343.818968 680.628879,343.730586 680.6266,343.642205 C680.624321,343.553823 680.628879,343.465442 680.6266,343.379386 C680.624321,343.291005 680.628879,343.202623 680.6266,343.114242 C680.624321,343.025861 680.628879,342.937479 680.6266,342.851423 C680.624321,342.763042 680.628879,342.674661 680.6266,342.586279 C680.624321,342.476965 680.624321,342.367651 680.619764,342.258337 C680.619764,342.193214 680.6266,342.125765 680.6266,342.060642 C680.624321,341.972261 680.628879,341.883879 680.6266,341.795498 C680.624321,341.707116 680.628879,341.621061 680.6266,341.532679 C680.624321,341.444298 680.628879,341.355916 680.6266,341.267535 C680.624321,341.181479 680.628879,341.093098 680.6266,341.004716 C680.624321,340.916335 680.628879,340.827953 680.6266,340.741898 C680.624321,340.653516 680.628879,340.565135 680.6266,340.476753 C680.624321,340.388372 680.628879,340.302316 680.6266,340.213935 C680.624321,340.125553 680.628879,340.037172 680.6266,339.951116 C680.624321,339.862735 680.628879,339.774353 680.6266,339.685972 C680.624321,339.59759 680.628879,339.511535 680.6266,339.423153 C680.624321,339.334772 680.628879,339.24639 680.6266,339.158009 C680.624321,339.071953 680.628879,338.983572 680.6266,338.89519 C680.624321,338.806809 680.628879,338.718427 680.6266,338.632372 C680.624321,338.54399 680.628879,338.455609 680.6266,338.367227 C680.624321,338.281172 680.628879,338.19279 680.6266,338.104409 C680.624321,338.016027 680.628879,337.927646 680.6266,337.839264 C680.624321,337.753209 680.628879,337.664827 680.6266,337.576446 C680.624321,337.488064 680.628879,337.399683 680.6266,337.313627 C680.624321,337.225246 680.628879,337.136864 680.6266,337.048483 C680.624321,336.960102 680.628879,336.874046 680.6266,336.785664 C680.624321,336.697283 680.628879,336.608902 680.6266,336.52052 C680.624321,336.434464 680.628879,336.346083 680.6266,336.257702 C680.624321,336.16932 680.628879,336.080939 680.6266,335.994883 C680.624321,335.906502 680.628879,335.81812 680.6266,335.729739 C680.624321,335.641357 680.628879,335.555302 680.6266,335.46692 C680.624321,335.378539 680.628879,335.290157 680.6266,335.204102 C680.624321,335.11572 680.628879,335.027339 680.6266,334.938957 C680.624321,334.850576 680.628879,334.76452 680.6266,334.676139 C680.624321,334.587757 680.628879,334.499376 680.6266,334.410994 C680.624321,334.324939 680.628879,334.236557 680.6266,334.148176 C680.624321,334.059794 680.628879,333.971413 680.6266,333.885357 C680.624321,333.796976 680.628879,333.708594 680.6266,333.620213 C680.624321,333.531831 680.628879,333.445776 680.6266,333.357394 C680.624321,333.269013 680.628879,333.180631 680.6266,333.094576 C680.624321,333.006194 680.628879,332.917813 680.6266,332.829431 C680.624321,332.74105 680.628879,332.652668 680.6266,332.566613 C680.624321,332.478231 680.628879,332.38985 680.6266,332.301468 C680.624321,332.213087 680.628879,332.127031 680.6266,332.03865 C680.624321,331.950268 680.628879,331.861887 680.6266,331.775831 C680.624321,331.68745 680.628879,331.599068 680.6266,331.510687 C680.624321,331.422305 680.628879,331.333924 680.6266,331.247868 C680.624321,331.159487 680.628879,331.071105 680.6266,330.982724 C680.624321,330.896668 680.628879,330.808287 680.6266,330.719905 C680.624321,330.631524 680.628879,330.543143 680.6266,330.454761 C680.624321,330.368705 680.628879,330.280324 680.6266,330.191943 C680.624321,330.103561 680.628879,330.017505 680.6266,329.929124 C680.624321,329.840743 680.628879,329.752361 680.6266,329.66398 C680.624321,329.577924 680.628879,329.489543 680.6266,329.401161 C680.624321,329.375577 680.6266,329.352319 680.6266,329.326735 L703.018069,355.376006 C717.894063,372.684817 744.243804,384.613988 783.569021,391.847313 C803.83665,395.57794 824.553203,397.443254 845.554605,397.440929 C863.29049,397.440929 881.229188,396.110555 899.263595,393.445156 C940.03357,387.423588 969.455131,376.627095 989.207752,360.441659 C1001.3583,350.48479 1008.01011,339.713882 1008.97632,328.421988 C1009.08571,327.133479 1009.11989,325.847296 1009.08343,324.565765 C1009.08115,324.477384 1009.08571,324.389002 1009.08343,324.300621 C1009.08115,324.212239 1009.08571,324.123858 1009.08343,324.037802 C1009.08115,323.949421 1009.08571,323.861039 1009.08343,323.772658 C1009.08115,323.686602 1009.08571,323.598221 1009.08343,323.509839 C1009.08115,323.421458 1009.08571,323.333076 1009.08343,323.247021 C1009.08115,323.158639 1009.08571,323.070258 1009.08343,322.981876 C1009.08115,322.893495 1009.08571,322.807439 1009.08343,322.719058 C1009.08115,322.630676 1009.08571,322.542295 1009.08343,322.453913 C1009.08115,322.367858 1009.08571,322.279476 1009.08343,322.191095 C1009.08115,322.102713 1009.08571,322.014332 1009.08343,321.928276 C1009.08115,321.839895 1009.08571,321.751513 1009.08343,321.663132 C1009.08115,321.57475 1009.08571,321.488695 1009.08343,321.400313 C1009.08115,321.311932 1009.08571,321.22355 1009.08343,321.135169 C1009.08115,321.049113 1009.08571,320.960732 1009.08343,320.87235 C1009.08115,320.783969 1009.08571,320.695587 1009.08343,320.609532 C1009.08115,320.52115 1009.08571,320.432769 1009.08343,320.344387 C1009.08115,320.256006 1009.08571,320.16995 1009.08343,320.081569 C1009.08115,319.993187 1009.08571,319.904806 1009.08343,319.81875 C1009.08115,319.730369 1009.08571,319.641987 1009.08343,319.553606 C1009.08115,319.465225 1009.08571,319.379169 1009.08343,319.290787 C1009.08115,319.202406 1009.08571,319.114025 1009.08343,319.025643 C1009.08115,318.939587 1009.08571,318.851206 1009.08343,318.762825 C1009.08115,318.674443 1009.08571,318.586062 1009.08343,318.500006 C1009.08115,318.411625 1009.08571,318.323243 1009.08343,318.234862 C1009.08115,318.14648 1009.08571,318.060425 1009.08343,317.972043 C1009.08115,317.883662 1009.08571,317.79528 1009.08343,317.706899 C1009.08115,317.620843 1009.08571,317.532462 1009.08343,317.44408 C1009.08115,317.355699 1009.08571,317.267317 1009.08343,317.181262 C1009.08115,317.09288 1009.08571,317.004499 1009.08343,316.916117 C1009.08115,316.827736 1009.08571,316.74168 1009.08343,316.653299 C1009.08115,316.564917 1009.08571,316.476536 1009.08343,316.39048 C1009.08115,316.302099 1009.08571,316.213717 1009.08343,316.125336 C1009.08115,316.036954 1009.08571,315.948573 1009.08343,315.862517 C1009.08115,315.774136 1009.08571,315.685754 1009.08343,315.597373 C1009.08115,315.508991 1009.08571,315.422936 1009.08343,315.334554 C1009.08115,315.246173 1009.08571,315.157791 1009.08343,315.06941 C1009.08115,314.983354 1009.08571,314.894973 1009.08343,314.806591 C1009.08115,314.71821 1009.08571,314.632154 1009.08343,314.543773 C1009.08115,314.455391 1009.08571,314.36701 1009.08343,314.278628 C1009.08115,314.192573 1009.08571,314.104191 1009.08343,314.01581 C1009.08115,313.927428 1009.08571,313.839047 1009.08343,313.752991 C1009.08115,313.66461 1009.08571,313.576228 1009.08343,313.487847 C1009.08115,313.399466 1009.08571,313.31341 1009.08343,313.225028 C1009.08115,313.136647 1009.08571,313.048266 1009.08343,312.96221 C1009.08115,312.873828 1009.08571,312.785447 1009.08343,312.697066 C1009.08115,312.608684 1009.08571,312.520303 1009.08343,312.434247 C1009.08115,312.345866 1009.08571,312.257484 1009.08343,312.169103 C1009.08115,312.083047 1009.08571,311.994666 1009.08343,311.906284 C1009.08115,311.817903 1009.08571,311.729521 1009.08343,311.64114 C1009.08115,311.555084 1009.08571,311.466703 1009.08343,311.378321 C1009.08115,311.28994 1009.08571,311.201558 1009.08343,311.115503 C1009.08115,311.027121 1009.08571,310.93874 1009.08343,310.850358 C1009.08115,310.764303 1009.08571,310.675921 1009.08343,310.58754 C1009.08115,310.499158 1009.08571,310.410777 1009.08343,310.322395 C1009.08115,310.23634 1009.08571,310.147958 1009.08343,310.059577 C1009.08115,309.971195 1009.08571,309.88514 1009.08343,309.796758 C1009.08115,309.708377 1009.08571,309.619995 1009.08343,309.531614 C1009.08115,309.445558 1009.08571,309.357177 1009.08343,309.268795 C1009.08115,309.180414 1009.08571,309.092032 1009.08343,309.005977 C1009.08115,308.917595 1009.08571,308.829214 1009.08343,308.740832 C1009.08115,308.652451 1009.08571,308.566395 1009.08343,308.478014 C1009.08115,308.389632 1009.08571,308.301251 1009.08343,308.212869 C1009.08115,308.126814 1009.08571,308.038432 1009.08343,307.950051 C1009.08115,307.861669 1009.08571,307.773288 1009.08343,307.687232 C1009.08115,307.598851 1009.08571,307.510469 1009.08343,307.422088 C1009.08115,307.336032 1009.08571,307.247651 1009.08343,307.159269 C1009.08115,307.070888 1009.08571,306.982507 1009.08343,306.896451 C1009.08115,306.808069 1009.08571,306.719688 1009.08343,306.631307 C1009.08115,306.542925 1009.08571,306.454544 1009.08343,306.368488 C1009.08115,306.280107 1009.08571,306.191725 1009.08343,306.103344 C1009.08115,306.017288 1009.08571,305.928907 1009.08343,305.840525 C1009.08115,305.752144 1009.08571,305.663762 1009.08343,305.577707 C1009.08115,305.489325 1009.08571,305.400944 1009.08343,305.312562 C1009.08115,305.224181 1009.08571,305.138125 1009.08343,305.049744 C1009.08115,304.961362 1009.08571,304.872981 1009.08343,304.784599 C1009.08115,304.698544 1009.08571,304.610162 1009.08343,304.521781 C1009.08115,304.433399 1009.08571,304.345018 1009.08343,304.258962 C1009.08115,304.170581 1009.08571,304.082199 1009.08343,303.993818 C1009.08115,303.905436 1009.08571,303.819381 1009.08343,303.730999 C1009.08115,303.642618 1009.08571,303.554236 1009.08343,303.465855 C1009.08115,303.379799 1009.08571,303.291418 1009.08343,303.203036 C1009.08115,303.114655 1009.08571,303.026273 1009.08343,302.940218 C1009.08115,302.851836 1009.08571,302.763455 1009.08343,302.675073 C1009.08115,302.589018 1009.08571,302.500636 1009.08343,302.412255 C1009.08115,302.323873 1009.08571,302.235492 1009.08343,302.149436 C1009.08115,302.061055 1009.08571,301.972673 1009.08343,301.884292 C1009.08115,301.79591 1009.08571,301.709855 1009.08343,301.621473 C1009.08115,301.533092 1009.08571,301.44471 1009.08343,301.356329 C1009.08115,301.270273 1009.08571,301.181892 1009.08343,301.09351 C1009.08115,301.005129 1009.08571,300.916748 1009.08343,300.830692 C1009.08115,300.74231 1009.08571,300.653929 1009.08343,300.565548 C1009.08115,300.456234 1009.08115,300.34692 1009.07659,300.237606 C1009.07659,300.170157 1009.08343,300.105034 1009.08343,300.037585 C1009.08115,299.951529 1009.08571,299.863148 1009.08343,299.774766 C1009.08115,299.686385 1009.08571,299.598003 1009.08343,299.511948 C1009.08115,299.423566 1009.08571,299.335185 1009.08343,299.246803 C1009.08115,299.158422 1009.08571,299.072366 1009.08343,298.983985 C1009.08115,298.895603 1009.08571,298.807222 1009.08343,298.71884 C1009.08115,298.632785 1009.08571,298.544403 1009.08343,298.456022 C1009.08115,298.36764 1009.08571,298.281585 1009.08343,298.193203 C1009.08115,298.104822 1009.08571,298.01644 1009.08343,297.928059 C1009.08115,297.842003 1009.08571,297.753622 1009.08343,297.66524 C1009.08115,297.576859 1009.08571,297.488477 1009.08343,297.402422 C1009.08115,297.31404 1009.08571,297.225659 1009.08343,297.137277 C1009.08115,297.048896 1009.08571,296.960514 1009.08343,296.874459 C1009.08115,296.786077 1009.08571,296.697696 1009.08343,296.609314 C1009.08115,296.523259 1009.08571,296.434877 1009.08343,296.346496 C1009.08115,296.258114 1009.08571,296.169733 1009.08343,296.083677 C1009.08115,295.995296 1009.08571,295.906914 1009.08343,295.818533 C1009.08115,295.730151 1009.08571,295.64177 1009.08343,295.555714 C1009.08115,295.467333 1009.08571,295.378951 1009.08343,295.29057 C1009.08115,295.204514 1009.08571,295.116133 1009.08343,295.027751 C1009.08115,294.93937 1009.08571,294.850989 1009.08343,294.764933 C1009.08115,294.676551 1009.08571,294.58817 1009.08343,294.499789 C1009.08115,294.411407 1009.08571,294.325351 1009.08343,294.23697 C1009.08115,294.148589 1009.08571,294.060207 1009.08343,293.971826 C1009.08115,293.88577 1009.08571,293.797389 1009.08343,293.709007 C1009.08115,293.620626 1009.08571,293.532244 1009.08343,293.446189 C1009.08115,293.357807 1009.08571,293.269426 1009.08343,293.181044 C1009.08115,293.094989 1009.08571,293.006607 1009.08343,292.918226 C1009.08115,292.829844 1009.08571,292.741463 1009.08343,292.655407 C1009.08115,292.567026 1009.08571,292.478644 1009.08343,292.390263 C1009.08115,292.301881 1009.08571,292.215826 1009.08343,292.127444 C1009.08115,292.039063 1009.08571,291.950681 1009.08343,291.8623 C1009.08115,291.776244 1009.08571,291.687863 1009.08343,291.599481 C1009.08115,291.5111 1009.08571,291.422718 1009.08343,291.336663 C1009.08115,291.248281 1009.08571,291.1599 1009.08343,291.071518 C1009.08115,290.985463 1009.08571,290.897081 1009.08343,290.8087 C1009.08115,290.720318 1009.08571,290.631937 1009.08343,290.543555 C1009.08115,290.4575 1009.08571,290.369118 1009.08343,290.280737 C1009.08115,290.192355 1009.08571,290.103974 1009.08343,290.017918 C1009.08115,289.934189 1009.08343,289.852785 1009.08343,289.769055 C1009.40474,289.776032 1009.72605,289.785336 1010.04964,289.787661 L1076.62928,367.240054 L1165.29275,354.143318 L1165.09222,353.908409 L1165.29275,353.878173 L1165.09222,353.643265 L1165.29275,353.615355 L1165.09222,353.380446 L1165.29275,353.35021 L1165.09222,353.117627 L1165.29275,353.087392 L1165.09222,352.852483 L1165.29275,352.824573 L1165.09222,352.589665 L1165.29275,352.559429 L1165.09222,352.326846 L1165.29275,352.29661 L1165.09222,352.061702 L1165.29275,352.031466 L1165.09222,351.798883 L1165.29275,351.768647 L1165.09222,351.533739 L1165.29275,351.505829 L1165.09222,351.27092 L1165.29275,351.240684 L1165.09222,351.008102 L1165.29275,350.977866 L1165.09222,350.742957 L1165.29275,350.712722 L1165.09222,350.480139 L1165.29275,350.449903 L1165.09222,350.21732 L1165.29275,350.187084 L1165.09222,349.952176 L1165.29275,349.92194 L1165.09222,349.689357 L1165.29275,349.659122 L1165.09222,349.424213 L1165.29275,349.396303 L1165.09222,349.161394 L1165.29275,349.131159 L1165.09222,348.898576 L1165.29275,348.86834 L1165.09222,348.633431 L1165.29275,348.603196 L1165.09222,348.370613 L1165.29275,348.340377 L1165.09222,348.105469 L1165.29275,348.077559 L1165.09222,347.84265 L1165.29275,347.812414 L1165.09222,347.579831 L1165.29275,347.549596 L1165.09222,347.314687 L1165.29275,347.284451 L1165.09222,347.051869 L1165.29275,347.021633 L1165.09222,346.786724 L1165.29275,346.758814 L1165.09222,346.523906 L1165.29275,346.49367 L1165.09222,346.261087 L1165.29275,346.230851 L1165.09222,345.995943 L1165.29275,345.968033 L1165.09222,345.733124 L1165.29275,345.702888 L1165.09222,345.470306 L1165.29275,345.44007 L1165.09222,345.205161 L1165.29275,345.174925 L1165.09222,344.942343 L1165.29275,344.912107 L1165.09222,344.677198 L1165.29275,344.649288 L1165.09222,344.41438 L1165.29275,344.384144 L1165.09222,344.151561 L1165.29275,344.121325 L1165.09222,343.886417 L1165.29275,343.856181 L1165.09222,343.623598 L1165.29275,343.593363 L1165.09222,343.358454 L1165.29275,343.330544 L1165.09222,343.095635 L1165.29275,343.0654 L1165.09222,342.832817 L1165.29275,342.802581 L1165.09222,342.567672 L1165.29275,342.539763 L1165.09222,342.304854 L1165.29275,342.274618 L1165.09222,342.03971 L1165.29275,342.0118 L1165.09222,341.776891 L1165.29275,341.746655 L1165.09222,341.514072 L1165.29275,341.483837 L1165.09222,341.248928 L1165.29275,341.221018 L1165.09222,340.98611 L1165.29275,340.955874 L1165.09222,340.723291 L1165.29275,340.693055 L1165.09222,340.458147 L1165.29275,340.427911 L1165.09222,340.195328 L1165.29275,340.165092 L1165.09222,339.930184 L1165.29275,339.902274 L1165.09222,339.667365 L1165.29275,339.637129 L1165.09222,339.404547 L1165.29275,339.374311 L1165.09222,339.139402 L1165.29275,339.109166 L1165.09222,338.876584 L1165.29275,338.846348 L1165.09222,338.611439 L1165.29275,338.583529 L1165.09222,338.348621 L1165.29275,338.318385 L1165.09222,338.085802 L1165.29275,338.055566 L1165.09222,337.820658 L1165.29275,337.792748 L1165.09222,337.557839 L1165.29275,337.527604 L1165.09222,337.292695 L1165.29275,337.264785 L1165.09222,337.029876 L1165.29275,336.999641 L1165.09222,336.767058 L1165.29275,336.736822 L1165.09222,336.501913 L1165.29275,336.474004 L1165.09222,336.239095 L1165.29275,336.208859 L1165.09222,335.976276 L1165.29275,335.946041 L1165.09222,335.711132 L1165.29275,335.680896 L1165.09222,335.448313 L1165.29275,335.418078 L1165.09222,335.183169 L1165.29275,335.155259 L1165.09222,334.920351 L1165.29275,334.890115 L1165.09222,334.657532 L1165.29275,334.627296 L1165.09222,334.392388 L1165.29275,334.362152 L1165.09222,334.129569 L1165.29275,334.099333 L1165.09222,333.864425 L1165.29275,333.836515 L1165.09222,333.601606 L1165.29275,333.57137 L1165.09222,333.338788 L1165.29275,333.308552 L1165.09222,333.073643 L1165.29275,333.045733 L1165.09222,332.810825 L1165.29275,332.780589 L1165.09222,332.54568 L1165.29275,332.51777 L1165.09222,332.282862 L1165.29275,332.252626 L1165.09222,332.020043 L1165.29275,331.989807 L1165.09222,331.754899 L1165.29275,331.726989 L1165.09222,331.49208 L1165.29275,331.461845 L1165.09222,331.229262 L1165.29275,331.199026 L1165.09222,330.964117 L1165.29275,330.933882 L1165.09222,330.701299 L1165.29275,330.671063 L1165.09222,330.436154 L1165.29275,330.408245 L1165.09222,330.173336 L1165.29275,330.1431 L1165.09222,329.910517 L1165.29275,329.880282 L1165.09222,329.645373 L1165.29275,329.615137 L1165.09222,329.382554 L1165.29275,329.352319 L1165.09222,329.119736 L1165.29275,329.0895 L1165.09222,328.854592 L1165.29275,328.824356 L1165.09222,328.591773 L1165.29275,328.561537 L1165.09222,328.326629 L1165.29275,328.298719 L1165.09222,328.06381 L1165.29275,328.033574 L1165.09222,327.800992 L1165.29275,327.770756 L1165.09222,327.535847 L1165.29275,327.505611 L1165.09222,327.273029 L1165.29275,327.242793 L1165.09222,327.007884 L1165.29275,326.979974 L1165.09222,326.745066 L1165.29275,326.71483 L1165.09222,326.482247 L1165.29275,326.452011 L1165.09222,326.217103 L1165.29275,326.186867 L1165.09222,325.954284 L1165.29275,325.924048 L1165.09222,325.68914 L1165.29275,325.66123 L1165.09222,325.426321 L1165.29275,325.396086 L1165.09222,325.163503 L1165.29275,325.133267 L1165.09222,324.898358 L1165.29275,324.870448 L1165.09222,324.63554 L1165.29275,324.605304 L1165.09222,324.372721 L1165.29275,324.342486 L1165.09222,324.107577 L1165.29275,324.077341 L1165.09222,323.844758 L1165.29275,323.814523 L1165.09222,323.579614 L1165.29275,323.549378 L1165.09222,323.316795 L1165.29275,323.28656 L1165.09222,323.053977 L1165.29275,323.023741 L1165.09222,322.788833 L1165.29275,322.758597 L1165.09222,322.526014 L1165.29275,322.495778 L1165.09222,322.26087 L1165.29275,322.23296 L1165.09222,321.998051 L1165.29275,321.967815 L1165.09222,321.735233 L1165.29275,321.704997 L1165.09222,321.470088 L1165.29275,321.442178 L1165.09222,321.20727 L1165.29275,321.177034 L1165.09222,320.942125 L1165.29275,320.914215 L1165.09222,320.679307 L1165.29275,320.649071 L1165.09222,320.416488 L1165.29275,320.386252 L1165.09222,320.151344 L1165.29275,320.121108 L1165.09222,319.888525 L1165.29275,319.858289 L1165.09222,319.625707 L1165.29275,319.595471 L1165.09222,319.360562 L1165.29275,319.330327 L1165.09222,319.097744 L1165.29275,319.067508 L1165.09222,318.832599 L1165.29275,318.802364 L1165.09222,318.569781 L1165.29275,318.539545 L1165.09222,318.306962 L1165.29275,318.276727 L1165.09222,318.041818 L1165.29275,318.011582 L1165.09222,317.778999 L1165.29275,317.748764 L1165.09222,317.513855 L1165.29275,317.485945 L1165.09222,317.251036 L1165.29275,317.220801 L1165.09222,316.988218 L1165.29275,316.957982 L1165.09222,316.723074 L1165.29275,316.692838 L1165.09222,316.460255 L1165.29275,316.430019 L1165.09222,316.195111 L1165.29275,316.167201 L1165.09222,315.932292 L1165.29275,315.902056 L1165.09222,315.669474 L1165.29275,315.639238 L1165.09222,315.404329 L1165.29275,315.376419 L1165.09222,315.141511 L1165.29275,315.111275 L1165.09222,314.876366 L1165.29275,314.848456 L1165.09222,314.613548 L1165.29275,314.583312 L1165.09222,314.350729 L1165.29275,314.320493 L1165.09222,314.085585 L1165.29275,314.057675 L1165.09222,313.822766 L1165.29275,313.79253 L1165.09222,313.559948 L1165.29275,313.529712 L1165.09222,313.294803 L1165.29275,313.264568 L1165.26313,313.22968 L1265.57582,339.325468 L1362.71186,324.991391 Z"
        id="Fill-1"
        fill="#531DA7"
        mask="url(#mask-2)"
        />
    </g>
    <polygon
        id="Fill-4"
        fill="#00EFCD"
        points="275.842744 331 297 356.07874 109.61967 384.284834 132.924684 411.908593 263.956334 392.183499 285.11359 417.262239 154.084245 436.987333 198.468163 489.596371 136.008053 499 26 368.609723"
    />
    <path
        d="M535.94154,408.12987 C562.914581,404.233186 582.687907,397.244324 595.261518,387.172273 C607.929685,377.019322 609.721734,366.774234 600.635415,356.434764 C591.499566,346.039113 574.126145,338.562603 548.528659,334.005236 C523.023477,329.366969 496.784366,328.996177 469.811325,332.895108 C442.982368,336.76932 423.238309,343.785148 410.570142,353.9381 C397.996531,364.012398 396.278776,374.248496 405.414624,384.6419 C414.503195,394.981371 431.79782,402.466869 457.30075,407.105136 C482.900488,411.662504 509.112583,412.006329 535.94154,408.12987 M577.181183,311.04087 C618.618943,318.497154 646.776177,330.690583 661.655138,347.616663 C676.48457,364.488809 673.663668,381.12275 653.196936,397.52298 C632.730204,413.925457 600.531854,425.300897 556.613142,431.647053 C512.836263,437.970737 470.232321,437.404437 428.79231,429.948153 C387.356802,422.494116 359.222081,410.329901 344.394901,393.460001 C329.51594,376.531674 332.309826,359.866273 352.778809,343.466043 C373.24329,327.065813 405.365095,315.701609 449.141974,309.377925 C493.062937,303.029522 535.743424,303.586833 577.181183,311.04087"
        id="Fill-6"
        fill="#00EFCD"
    />
    <path
        d="M990.867447,302.844971 C1003.78615,317.755835 1001.31303,332.471592 983.452625,346.987649 C965.594487,361.510593 937.592256,371.562113 899.452731,377.153687 C861.31094,382.745262 824.162024,382.240276 788.001448,375.638729 C751.840872,369.039478 727.302367,358.283272 714.383666,343.370112 L653,272.527437 L714.440337,263.520319 L775.824002,334.36529 C783.014408,342.663131 796.638095,348.642627 816.706399,352.303776 C836.772435,355.969517 857.414249,356.244964 878.638639,353.132413 C899.860762,350.022157 915.429395,344.439764 925.340004,336.380644 C935.25288,328.326114 936.615249,320.147634 929.427111,311.852088 L868.041178,241.007117 L929.483781,232 L990.867447,302.844971 Z"
        id="Fill-8"
        fill="#00EFCD"
    />
    <path
        d="M1084.7739,277.763599 L1174.99574,264.775205 C1186.12389,263.174209 1194.32129,260.273689 1199.59252,256.064508 C1204.76039,251.937547 1205.43795,247.707812 1201.61832,243.377586 C1197.84922,239.106741 1190.72904,236.032646 1180.26238,234.155301 C1169.5913,232.243698 1158.69283,232.088395 1147.56698,233.689391 L1057.34513,246.675501 L1084.7739,277.763599 Z M1145.89948,347.038077 L1083.64615,356 L974,231.736678 L1126.47747,209.788645 C1154.74688,205.718781 1182.36857,206.104756 1209.34716,210.939718 C1236.12133,215.740422 1254.29616,223.564976 1263.87394,234.417947 C1272.17699,243.829793 1271.78883,253.282749 1262.72323,262.785951 C1253.84598,272.133849 1238.52611,279.44453 1216.74985,284.727132 L1348,317.950653 L1270.18104,329.150773 L1141.50105,296.534763 L1105.86341,301.664344 L1145.89948,347.038077 Z"
        id="Fill-10"
        fill="#00EFCD"
    />
    <path
        d="M66.9478411,322.801761 C84.5911744,320.153898 99.5699584,311.843139 111.886449,297.874192 C124.27965,283.891123 130.398412,268.389946 130.240479,251.377722 C130.082547,234.292534 123.695299,220.664867 111.080992,210.506488 C98.5411399,200.263378 83.449547,196.462224 65.8062136,199.107733 L36.8075226,203.457289 L37.9491501,327.151317 L66.9478411,322.801761 Z M124.196171,195.706701 C140.526407,208.880112 148.793053,226.49958 148.99611,248.565103 C149.201422,270.628272 141.279972,290.676713 125.238527,308.701009 C109.271536,326.718244 89.8977115,337.436793 67.1147985,340.854301 L19.4755422,348 L18,188.200892 L65.6392563,181.055193 C88.4244255,177.637685 107.940389,182.521521 124.196171,195.706701 L124.196171,195.706701 Z"
        id="Fill-12"
        fill="#00EFCD"
    />
    <polygon
        id="Fill-14"
        fill="#00EFCD"
        points="161 152.889088 178.606326 150 180 315.110912 162.393674 318"
    />
    <polygon
        id="Fill-16"
        fill="#00EFCD"
        points="379 293.974278 360.502881 296.700022 359.481568 188.058029 290.314849 264.869264 219.781929 208.64823 220.803243 317.290223 202.419603 320 201 169.023441 290.081216 240.02964 377.582622 143"
    />
    <polygon
        id="Fill-18"
        fill="#00EFCD"
        points="515.556605 116 515.719925 133.92269 413.399978 149.49697 413.876696 201.93778 485.466008 191.041625 485.629328 208.961979 414.040016 219.858133 414.516734 272.301279 516.83668 256.726999 517 274.649689 396.443395 293 395 134.350311"
    />
    <polygon
        id="Fill-20"
        fill="#00EFCD"
        points="683.612031 85 685 241.15514 571.996696 145.966307 573.005159 259.2561 555.387969 262 554 105.84255 667.003304 201.031383 665.996973 87.7415899"
    />
    <path
        d="M768.012483,147.114925 C780.304528,145.298308 790.845887,147.902802 799.643135,154.930659 C808.436,161.954014 812.888306,171.329742 812.997861,183.053342 C813.109607,194.776943 808.843544,205.438035 800.206246,215.038871 C791.566758,224.639707 781.102087,230.348434 768.810042,232.162801 L702.205127,242 L702.045177,224.734253 L768.647901,214.897054 C775.94863,213.818788 782.145048,210.415163 787.239344,204.679423 C792.405947,199.008964 794.958573,192.692447 794.895031,185.72762 C794.829299,178.762793 792.164927,173.180126 786.904107,168.975118 C781.717784,164.833139 775.473163,163.300157 768.174624,164.378422 L735.989626,169.132693 C723.69539,170.94706 713.154031,168.342565 704.358974,161.319211 C695.566109,154.293605 691.111612,144.917876 691.002057,133.194276 C690.892502,121.472927 695.158565,110.809583 703.795863,101.206496 C712.43316,91.6056598 722.900022,85.899184 735.192067,84.0848173 L803.473169,74 L803.633119,91.2634964 L735.354208,101.348314 C728.051287,102.426579 721.85487,105.79869 716.760573,111.460144 C711.59178,117.204888 709.039154,123.555171 709.104887,130.519998 C709.170619,137.484825 711.8328,143.031475 717.09362,147.164449 C722.282134,151.380713 728.526755,152.947462 735.827485,151.869196 L768.012483,147.114925 Z"
        id="Fill-22"
        fill="#00EFCD"
    />
    <polygon
        id="Fill-24"
        fill="#00EFCD"
        points="846 63.8890883 863.608457 61 865 226.110912 847.391543 229"
    />
    <path
        d="M971.581136,187.23572 C989.543532,184.635416 1004.79549,176.47393 1017.33241,162.755883 C1029.94744,149.023968 1036.17915,133.798901 1036.02066,117.094551 C1035.85987,100.313924 1029.35482,86.9333391 1016.51239,76.9574184 C1003.74807,66.898288 988.381259,63.1654076 970.418864,65.7633999 C952.534566,68.3521467 937.282609,76.5136332 924.665289,90.2455481 C912.04797,103.90581 905.820853,119.126254 905.981642,135.906881 C906.14243,152.613543 912.642888,165.994128 925.487609,176.044013 C938.330032,186.089275 953.696838,189.824467 971.581136,187.23572 M1029.86474,62.4234543 C1046.4122,75.371811 1054.79159,92.6794324 1054.99602,114.34863 C1055.20504,136.015516 1047.18169,155.696926 1030.92595,173.388236 C1014.67251,191.08417 994.946032,201.607888 971.748816,204.964013 C948.556194,208.320138 928.68271,203.521711 912.135255,190.573354 C895.5878,177.62962 887.210709,160.319688 887.00398,138.652802 C886.794955,116.983604 894.818312,97.3021945 911.07405,79.6108839 C927.327491,61.9172618 947.053968,51.3912325 970.248887,48.0351072 C993.446103,44.6812933 1013.31729,49.477409 1029.86474,62.4234543"
        id="Fill-26"
        fill="#00EFCD"
    />
    <polygon
        id="Fill-28"
        fill="#00EFCD"
        points="1201.61416 10 1203 166.15514 1089.9967 70.9663074 1091.00516 184.2561 1073.38797 187 1072 30.84486 1185.0033 126.033693 1183.99697 12.7438996"
    />
    </g>
  </g>
</svg>
